<svg width="26" height="19" viewBox="0 0 26 19" fill="none" xmlns="http://www.w3.org/2000/svg">
<path fill-rule="evenodd" clip-rule="evenodd" d="M17.6847 4.93833C17.6847 7.67962 15.4993 9.8777 12.7739 9.8777C10.0484 9.8777 7.86303 7.67962 7.86303 4.93833C7.86303 2.19598 10.0484 0 12.7739 0C15.4993 0 17.6847 2.19598 17.6847 4.93833ZM12.7738 18.6667C8.77079 18.6667 5.35274 18.032 5.35274 15.4935C5.35274 12.954 8.74885 12.2962 12.7738 12.2962C16.7769 12.2962 20.1949 12.9308 20.1949 15.4704C20.1949 18.0089 16.7988 18.6667 12.7738 18.6667ZM19.7833 5.02745C19.7833 6.42489 19.3665 7.72672 18.6353 8.80895C18.56 8.92033 18.6269 9.07058 18.7596 9.09369C18.9424 9.12521 19.1315 9.14308 19.3237 9.14833C21.2406 9.19876 22.9611 7.95788 23.4364 6.08972C24.1405 3.3148 22.0732 0.823571 19.4407 0.823571C19.1544 0.823571 18.8807 0.854042 18.6144 0.908679C18.5778 0.917084 18.5391 0.933896 18.5183 0.966467C18.4932 1.00639 18.512 1.05998 18.5371 1.09465C19.3278 2.20946 19.7833 3.56907 19.7833 5.02745ZM22.9579 11.098C24.246 11.3512 25.0932 11.8682 25.4442 12.6194C25.7409 13.2362 25.7409 13.9517 25.4442 14.5674C24.9072 15.7327 23.1763 16.1067 22.5035 16.2034C22.3646 16.2244 22.2528 16.1036 22.2674 15.9638C22.6111 12.735 19.8773 11.2041 19.1701 10.8521C19.1398 10.8364 19.1335 10.8122 19.1367 10.7975C19.1388 10.787 19.1513 10.7702 19.1743 10.767C20.7047 10.7386 22.35 10.9488 22.9579 11.098ZM6.34331 9.14816C6.53552 9.1429 6.72355 9.12609 6.90741 9.09352C7.04008 9.07041 7.10694 8.92015 7.03172 8.80878C6.30048 7.72655 5.88367 6.42472 5.88367 5.02728C5.88367 3.5689 6.33913 2.20928 7.12992 1.09448C7.15499 1.05981 7.17275 1.00622 7.14872 0.966296C7.12783 0.934775 7.08813 0.916913 7.05262 0.908507C6.78519 0.85387 6.51149 0.8234 6.22526 0.8234C3.59278 0.8234 1.52544 3.31463 2.23057 6.08955C2.70588 7.95771 4.4264 9.19859 6.34331 9.14816ZM6.52976 10.7969C6.5329 10.8126 6.52663 10.8357 6.49738 10.8526C5.78911 11.2045 3.0553 12.7354 3.39899 15.9632C3.41361 16.104 3.30288 16.2238 3.16394 16.2038C2.4912 16.1071 0.760234 15.7331 0.223291 14.5679C-0.0744304 13.9511 -0.0744304 13.2366 0.223291 12.6198C0.574289 11.8686 1.42044 11.3516 2.70848 11.0974C3.3175 10.9492 4.96176 10.7391 6.4932 10.7675C6.51618 10.7706 6.52767 10.7874 6.52976 10.7969Z" fill="#FFCF00"/>
</svg>
