<svg  xmlns="http://www.w3.org/2000/svg" viewBox="0 0 112 30" >
    <path d="M8.92,2.31,2,20.75H7.8l.9-3.05h6.46l.92,3.05h6L15.12,2.31Zm1,11.41,2-6.63,2,6.63Z"
          transform="translate(-2 -2)"/>
    <path d="M32.62,14.07h3.81V15.8a10,10,0,0,1-2,.95,6,6,0,0,1-1.82.27,3.94,3.94,0,0,1-3.13-1.28c-.75-.85-1.12-2.28-1.12-4.27a6.28,6.28,0,0,1,1.11-4.12,3.7,3.7,0,0,1,3-1.3,3.58,3.58,0,0,1,2.07.55,2.93,2.93,0,0,1,1.14,1.6l5.49-1a7.75,7.75,0,0,0-1.5-2.95,5.92,5.92,0,0,0-2.51-1.72A14.1,14.1,0,0,0,32.59,2a12,12,0,0,0-5,.89,8.09,8.09,0,0,0-3.64,3.39,10.72,10.72,0,0,0-1.24,5.25,11,11,0,0,0,1.14,5.08A7.58,7.58,0,0,0,27,19.94a11.08,11.08,0,0,0,5.34,1.12,15.33,15.33,0,0,0,4.6-.62,18.16,18.16,0,0,0,4.46-2.35V10.23H32.62Z"
          transform="translate(-2 -2)"/>
    <path d="M49.86,2.31,42.94,20.75h5.81l.89-3.05H56.1L57,20.75H63L56.06,2.31Zm1,11.41,2-6.63,2,6.63Z"
          transform="translate(-2 -2)"/>
    <polygon points="77 0.31 59.72 0.31 59.72 4.87 65.52 4.87 65.52 18.75 71.2 18.75 71.2 4.87 77 4.87 77 0.31"/>
    <path d="M107.85,26.33H105v5.61h1.74V29.86h.94a2.21,2.21,0,0,0,1.56-.48,1.73,1.73,0,0,0,.51-1.33,1.68,1.68,0,0,0-.47-1.27A2,2,0,0,0,107.85,26.33Zm0,2.22a1.12,1.12,0,0,1-.7.17h-.42V27.47h.49a.93.93,0,0,1,.66.18.64.64,0,0,1,.18.45A.57.57,0,0,1,107.84,28.55Z"
          transform="translate(-2 -2)"/>
    <polygon points="110.06 28.55 110.06 24.33 108.33 24.33 108.33 29.93 112 29.93 112 28.55 110.06 28.55"/>
    <path d="M101.38,25.68l4.24-1.22V13.21h7.13V9.49h-7.13V6.27H114v-4H99.91V25.73c-.12,0-.26,0-.38.08L91.1,2.31H84.9L78,20.75h5.81l.89-3.05h6.46l5.67,14.24,1-2a3.2,3.2,0,1,0,3.59-4.24Zm-15.46-12,2-6.63,2,6.63Zm14.86,17.74a2.69,2.69,0,1,1,2.68-2.68A2.69,2.69,0,0,1,100.78,31.46Z"
          transform="translate(-2 -2)"/>
</svg>