<?xml version="1.0" encoding="utf-8"?>
<svg xmlns="http://www.w3.org/2000/svg" xmlns:xlink="http://www.w3.org/1999/xlink" x="0px" y="0px"
	 viewBox="0 0 240.72 73.11" style="enable-background:new 0 0 240.72 73.11;" xml:space="preserve">
<g>
	<path style="fill:#E30613;" d="M58.94,5.97c0,0-31.94,4.77-54.85,34.38c11.97,10.35,35.33,29.44,60.28,29.1
		C67.94,52.6,72.92,28.88,58.94,5.97z"/>
	<path d="M76.34,55.1c-1.27,0-2.38-0.24-3.38-0.61c-8.11,5.56-17.57,9.1-27.31,10.49c-10.99,1.67-22.47,0.9-32.97-2.77
		c-0.48-10.77,0.77-21.71,4.77-31.8c2.04-5.16,4.67-10.1,7.91-14.65c3.27-4.52,7.07-8.72,11.56-12.11
		c-4.75,3.05-8.8,7.11-12.34,11.52c-3.54,4.43-6.48,9.36-8.7,14.61c-4.48,10.48-6.32,22.06-5.72,33.44l0.04,0.84l0.78,0.29
		c11.17,4.2,23.35,5.18,35.1,3.52c10.99-1.68,21.65-5.99,30.51-12.79C76.5,55.08,76.43,55.1,76.34,55.1z"/>
	<g>
		<path style="fill:#FFFFFF;" d="M60.11,50.78l-8.33,0.64c-2.24-5.06-3.83-8.25-4.91-9.47c-1.05-1.23-2.74-1.85-5.1-1.82
			c-0.99,0.01-1.94,0.03-2.84,0.05c-0.3,4.06-0.53,8.16-0.67,12.29l-7.82,0.61c0.86-4.99,1.67-10.59,2.44-16.82
			c0.74-5.99,1.27-11.1,1.6-15.35l3.76,0.46c0.43,0.05,1.35,0.14,2.73,0.26c1.38,0.13,2.66,0.26,3.83,0.4
			c6.64,0.82,10.11,3.45,10.43,7.9c0.25,3.52-1.72,5.94-6.01,7.31l0,0.33c1.7,0.42,3.22,1.57,4.6,3.42
			C55.25,42.82,57.31,46.11,60.11,50.78z M49.33,31.18c-0.03-2.94-1.98-4.59-5.84-4.92c-1.42-0.12-2.68-0.12-3.78,0.01
			c-0.02,2.46-0.17,5.66-0.47,9.6c0.9,0.05,1.67,0.08,2.29,0.09C46.77,36.04,49.36,34.45,49.33,31.18z"/>
	</g>
	<g>
		<g>
			<path style="fill:#E30613;" d="M87.37,51.26l-3.99,0.14c-0.18-0.62-0.27-1.1-0.27-1.47h-0.27c-1.49,1.23-3.23,1.84-5.22,1.84
				c-1.87,0-3.29-0.49-4.24-1.48c-0.95-0.98-1.43-2.95-1.43-5.89c0-0.35,0.01-0.85,0.03-1.48c0.02-0.64,0.03-1.19,0.03-1.67
				c0-1.26-0.11-3.27-0.33-6.03l4.76-0.17c-0.18,2.18-0.27,4.25-0.27,6.21c0,2.79,0.21,4.66,0.62,5.63
				c0.42,0.97,1.23,1.45,2.45,1.45c1.33,0,2.48-0.32,3.45-0.96c0-5.98-0.07-10.04-0.21-12.18l4.61-0.15
				c-0.11,2.15-0.17,4.93-0.17,8.36C86.91,45.93,87.06,48.55,87.37,51.26z"/>
		</g>
		<g>
			<path style="fill:#E30613;" d="M107.3,42.47c0,2.47-0.71,4.63-2.11,6.5c-1.41,1.86-3.35,2.8-5.81,2.8
				c-1.82,0-3.11-0.39-3.86-1.16H95.3l-0.34,0.67h-4c0.15-3.99,0.22-8.21,0.22-12.67c0-4.19-0.19-7.96-0.56-11.3l4.89-0.27
				c-0.11,2.65-0.17,5.65-0.17,8.99h0.2c1.15-1.01,2.7-1.52,4.66-1.52c2.18,0,3.91,0.79,5.19,2.36
				C106.67,38.43,107.3,40.3,107.3,42.47z M102.77,42.92c0-1.42-0.36-2.65-1.08-3.69c-0.72-1.04-1.72-1.56-2.98-1.56
				c-1.57,0-2.72,0.46-3.44,1.38c0,3.89,0.09,6.82,0.25,8.78c0.72,0.56,1.64,0.83,2.78,0.83c1.51,0,2.63-0.56,3.37-1.68
				C102.4,45.87,102.77,44.51,102.77,42.92z"/>
		</g>
		<g>
			<path style="fill:#E30613;" d="M115.21,51.27h-4.59c0.16-2.35,0.24-5.05,0.24-8.1c0-3.03-0.19-5.67-0.58-7.95l4.91-0.49
				c-0.15,2.21-0.22,5.02-0.22,8.44C114.98,46.09,115.06,48.79,115.21,51.27z M116,29.92c0,0.77-0.26,1.45-0.79,2.03
				c-0.53,0.58-1.26,0.87-2.21,0.87c-0.8,0-1.42-0.25-1.87-0.75c-0.45-0.5-0.67-1.1-0.67-1.81c0-0.77,0.26-1.44,0.79-2.01
				c0.53-0.57,1.27-0.85,2.23-0.85c0.81,0,1.43,0.25,1.87,0.74C115.78,28.64,116,29.23,116,29.92z"/>
		</g>
		<g>
			<path style="fill:#E30613;" d="M134.49,51.27h-4.54c0.25-2.88,0.38-5.79,0.38-8.73c0-1.79-0.26-3-0.79-3.63
				c-0.53-0.63-1.33-0.95-2.41-0.95c-1.3,0-2.52,0.44-3.68,1.33c0.06,4.43,0.09,8.43,0.09,11.99h-4.59c0.2-3.56,0.31-6.35,0.31-8.39
				c0-2.72-0.28-5.28-0.84-7.69l4.37-0.48l0.29,1.81h0.27c1.56-1.34,3.35-2.01,5.37-2.01c1.75,0,3.15,0.42,4.21,1.24
				c1.05,0.83,1.58,2.35,1.58,4.56c0,0.33-0.01,0.77-0.04,1.32c-0.03,0.55-0.04,1.12-0.04,1.7
				C134.4,44.86,134.43,47.51,134.49,51.27z"/>
		</g>
		<g>
			<path d="M154.72,42.8c0,2.86-0.88,5.1-2.65,6.72c-1.76,1.62-3.83,2.42-6.22,2.42c-2.27,0-4.23-0.74-5.85-2.21
				c-1.62-1.47-2.44-3.55-2.44-6.22c0-2.88,0.89-5.12,2.66-6.75c1.77-1.62,3.86-2.44,6.24-2.44c2.26,0,4.2,0.74,5.82,2.22
				C153.9,38.03,154.72,40.11,154.72,42.8z M150.27,43.31c0-1.65-0.38-3.03-1.16-4.15c-0.77-1.12-1.78-1.68-3.02-1.68
				c-1.2,0-2.19,0.52-2.94,1.57c-0.76,1.05-1.14,2.35-1.14,3.92c0,1.65,0.39,3.03,1.16,4.15c0.78,1.12,1.78,1.68,3.02,1.68
				c1.21,0,2.18-0.52,2.94-1.57C149.88,46.19,150.27,44.88,150.27,43.31z"/>
		</g>
		<g>
			<path d="M182.86,35.07c0,0.65-0.95,3.31-2.84,7.98c-1.89,4.67-2.84,7.41-2.84,8.22h-3.97c0-0.52-0.47-2.13-1.4-4.82
				c-1.16-3.37-1.9-5.66-2.21-6.87h-0.27c-0.3,1.17-1,3.43-2.12,6.79c-0.9,2.66-1.35,4.3-1.35,4.91h-3.99c0-0.69-0.9-3.46-2.7-8.29
				c-1.81-4.84-2.7-7.47-2.7-7.9h4.91c0,0.47,0.49,2.42,1.49,5.86c1,3.44,1.5,5.48,1.5,6.13h0.25c0-0.79,0.57-2.82,1.7-6.11
				c1.14-3.29,1.71-5.25,1.71-5.87h4.01c0,0.43,0.55,2.39,1.66,5.88c1.11,3.49,1.67,5.53,1.67,6.11h0.23c0-0.64,0.5-2.57,1.51-5.81
				c1-3.23,1.51-5.29,1.51-6.18H182.86z"/>
		</g>
		<g>
			<path d="M200.12,41.43c0,0.58-0.03,1.34-0.1,2.27l-10.99,0.19c0.16,1.29,0.71,2.35,1.65,3.21c0.95,0.85,2.18,1.28,3.72,1.28
				c1.71,0,3.52-0.26,5.44-0.77l-0.34,3.31c-1.57,0.57-3.51,0.85-5.83,0.85c-2.94,0-5.19-0.83-6.75-2.47
				c-1.56-1.65-2.34-3.63-2.34-5.95c0-2.42,0.74-4.52,2.23-6.3c1.48-1.78,3.54-2.67,6.18-2.67c2.41,0,4.2,0.65,5.37,1.96
				C199.53,37.64,200.12,39.34,200.12,41.43z M196.13,41.28c0-2.61-1.12-3.92-3.34-3.92c-2.13,0-3.4,1.35-3.79,4.06L196.13,41.28z"
			/>
		</g>
		<g>
			<path style="fill:#E30613;" d="M208.62,48.31c0,0.83-0.29,1.56-0.86,2.19c-0.57,0.63-1.36,0.95-2.38,0.95
				c-0.85,0-1.52-0.27-2-0.82c-0.47-0.54-0.71-1.2-0.71-1.96c0-0.83,0.28-1.55,0.86-2.16c0.58-0.61,1.38-0.91,2.4-0.91
				c0.86,0,1.53,0.26,2,0.79C208.39,46.92,208.62,47.56,208.62,48.31z"/>
		</g>
		<g>
			<path d="M228.44,42.47c0,2.47-0.71,4.63-2.12,6.5c-1.41,1.86-3.34,2.8-5.78,2.8c-1.82,0-3.07-0.39-3.75-1.16h-0.2
				c0,2.79,0.04,5.61,0.12,8.46h-4.64c0.21-3.26,0.31-7.03,0.31-11.29c0-5.5-0.3-9.7-0.89-12.59l4.37-0.48l0.26,1.47h0.27
				c1.22-1.13,2.87-1.69,4.97-1.69c2.18,0,3.91,0.79,5.18,2.36C227.8,38.43,228.44,40.3,228.44,42.47z M223.9,42.92
				c0-1.43-0.35-2.67-1.07-3.7c-0.72-1.03-1.71-1.55-2.97-1.55c-1.57,0-2.72,0.46-3.45,1.38c0.17,3.19,0.25,6.12,0.25,8.78
				c0.72,0.56,1.65,0.83,2.78,0.83c1.51,0,2.63-0.56,3.36-1.68C223.54,45.87,223.9,44.51,223.9,42.92z"/>
		</g>
		<g>
			<path d="M236.63,51.27h-4.65c0.17-3.9,0.25-8.12,0.25-12.67c0-4.43-0.17-8.2-0.53-11.3l4.93-0.27
				c-0.17,3.22-0.26,7.08-0.26,11.58C236.37,43.17,236.45,47.4,236.63,51.27z"/>
		</g>
	</g>
	<path d="M70.97,31.4c0.69-0.15,1.43-0.23,2.22-0.23c0.07,0,0.13,0.02,0.19,0.02c-2.06-3.12-4.33-6.12-6.89-8.92
		C58.74,13.69,48.43,6.97,36.92,3.65c5.59,2.05,10.85,4.77,15.57,8.11c4.71,3.36,8.9,7.28,12.58,11.54
		C67.26,25.87,69.19,28.59,70.97,31.4z"/>
</g>
</svg>
